<svg width="512" height="512" viewBox="0 0 512 512" fill="none" xmlns="http://www.w3.org/2000/svg">
<path d="M294.28 256.9L239.86 202.49C238.745 201.371 237.42 200.484 235.962 199.878C234.503 199.272 232.939 198.961 231.36 198.961C229.78 198.961 228.217 199.272 226.758 199.878C225.299 200.484 223.975 201.371 222.86 202.49L12.4498 401C11.283 402.1 10.3485 403.423 9.70153 404.89C9.05458 406.358 8.70829 407.94 8.68312 409.543C8.65795 411.147 8.95441 412.739 9.55499 414.226C10.1556 415.712 11.0481 417.064 12.1798 418.2L78.2298 484.48C79.3636 485.617 80.7142 486.516 82.2015 487.121C83.6888 487.727 85.2826 488.028 86.8884 488.007C88.4942 487.985 90.0794 487.642 91.55 486.997C93.0206 486.351 94.3467 485.417 95.4498 484.25L294.26 273.89C295.378 272.777 296.266 271.454 296.873 269.997C297.479 268.54 297.792 266.977 297.794 265.399C297.796 263.821 297.487 262.258 296.884 260.8C296.28 259.341 295.396 258.016 294.28 256.9ZM499.33 199.33L455.44 155.75C453.432 153.749 451.049 152.166 448.426 151.092C445.803 150.017 442.994 149.473 440.16 149.49C435.568 149.494 431.093 150.943 427.37 153.63C427.37 153.2 427.43 152.78 427.46 152.41C427.91 145.91 428.61 136.09 422.26 127.19C414.71 117.014 406.421 107.408 397.46 98.4501C397.436 98.421 397.409 98.3942 397.38 98.3701C384.06 85.2501 355.07 60.5401 310.66 42.4301C293.81 35.522 275.771 31.9787 257.56 32.0001C226 32.0001 202 46.2401 192.81 54.6801C183.76 62.9377 177.825 74.0559 176 86.1701L192 96.0001C192 96.0001 200.06 94.0001 205.86 92.6101C211.919 91.3177 218.137 90.9302 224.31 91.4601C237.5 92.5501 253.1 99.1001 260 104.55C271.7 113.96 277.33 126.64 278.26 145.64C278.46 149.87 268.74 166.99 254.1 185.48C252.882 187.017 252.271 188.948 252.384 190.906C252.496 192.864 253.324 194.712 254.71 196.1L300.08 241.47C301.533 242.911 303.484 243.74 305.53 243.786C307.576 243.833 309.562 243.093 311.08 241.72C323.15 230.72 341.57 213.72 345.75 211.13C353.44 206.4 358.94 205.49 360.45 205.33C364.368 204.946 368.31 205.777 371.74 207.71C371.757 207.881 371.738 208.054 371.685 208.218C371.631 208.381 371.544 208.532 371.43 208.66L369.61 210.39L369.31 210.67C367.299 212.674 365.704 215.055 364.617 217.678C363.531 220.3 362.974 223.112 362.978 225.951C362.983 228.789 363.549 231.599 364.645 234.218C365.74 236.837 367.342 239.213 369.36 241.21L413.31 284.89C414.809 286.38 416.836 287.216 418.95 287.216C421.063 287.216 423.091 286.38 424.59 284.89L499.27 210.69C500.024 209.95 500.623 209.069 501.035 208.096C501.446 207.123 501.661 206.079 501.666 205.023C501.672 203.966 501.468 202.92 501.067 201.943C500.666 200.966 500.076 200.078 499.33 199.33Z" fill="#0FA958"/>
</svg>
