<svg width="58" height="40" viewBox="0 0 58 40" fill="none" xmlns="http://www.w3.org/2000/svg">
<g clip-path="url(#clip0_1421_16)">
<path d="M16.3531 33.5712C15.6541 33.5721 14.9791 33.3159 14.4567 32.8514L0 20.0002L15.2603 6.43435C15.8278 5.93838 16.5683 5.68675 17.3204 5.73427C18.0726 5.78179 18.7755 6.12462 19.2761 6.68806C19.7766 7.25151 20.0343 7.98993 19.9929 8.74246C19.9514 9.495 19.6143 10.2007 19.055 10.7058L8.6015 20.0002L18.253 28.5768C18.6858 28.9619 18.9914 29.4693 19.1294 30.032C19.2673 30.5946 19.2311 31.1859 19.0254 31.7275C18.8198 32.2691 18.4545 32.7354 17.9779 33.0647C17.5013 33.394 16.9359 33.5707 16.3566 33.5715L16.3531 33.5712ZM41.9093 33.5658L57.1696 19.9999L42.7132 7.14872C42.1449 6.6589 41.4067 6.41231 40.6581 6.46224C39.9095 6.51217 39.2106 6.8546 38.7124 7.41555C38.2142 7.97651 37.9567 8.71095 37.9955 9.4602C38.0343 10.2094 38.3663 10.9134 38.9198 11.4199L48.5713 19.9999L38.1168 29.2909C37.5554 29.7953 37.2163 30.5014 37.1737 31.255C37.131 32.0085 37.3882 32.7483 37.8891 33.3129C38.39 33.8775 39.0939 34.221 39.8472 34.2684C40.6005 34.3158 41.3419 34.0632 41.9096 33.5658H41.9093ZM28.5457 37.6138L34.2598 3.32884C34.3241 2.95784 34.3145 2.57777 34.2314 2.21051C34.1483 1.84325 33.9934 1.49604 33.7756 1.18888C33.5578 0.881715 33.2814 0.620653 32.9623 0.420716C32.6432 0.22078 32.2878 0.085915 31.9164 0.0238833C31.545 -0.0381484 31.1649 -0.0261226 30.7982 0.0592688C30.4315 0.14466 30.0853 0.301731 29.7795 0.521444C29.4737 0.741156 29.2143 1.01917 29.0164 1.33949C28.8184 1.65981 28.6858 2.01612 28.6261 2.3879L22.9117 36.6729C22.8498 37.0431 22.8615 37.4218 22.946 37.7875C23.0305 38.1532 23.1863 38.4986 23.4043 38.8041C23.6224 39.1095 23.8985 39.369 24.2169 39.5677C24.5353 39.7664 24.8898 39.9004 25.26 39.9621C25.4163 39.9869 25.5744 39.9995 25.7327 39.9996C26.408 39.9987 27.0613 39.7585 27.5765 39.3218C28.0916 38.8851 28.4355 38.28 28.547 37.6138H28.5457Z" fill="#00DC93"/>
</g>
<defs>
<clipPath id="clip0_1421_16">
<rect width="57.1702" height="40" fill="white"/>
</clipPath>
</defs>
</svg>
