<svg width="512" height="512" viewBox="0 0 512 512" fill="none" xmlns="http://www.w3.org/2000/svg">
<path d="M376 352H272V198.63L324.69 251.31C327.715 254.184 331.743 255.762 335.915 255.709C340.087 255.656 344.074 253.974 347.024 251.024C349.974 248.074 351.656 244.087 351.709 239.915C351.762 235.743 350.184 231.715 347.31 228.69L267.31 148.69C264.31 145.692 260.242 144.007 256 144.007C251.758 144.007 247.69 145.692 244.69 148.69L164.69 228.69C161.816 231.715 160.238 235.743 160.291 239.915C160.344 244.087 162.026 248.074 164.976 251.024C167.926 253.974 171.913 255.656 176.085 255.709C180.257 255.762 184.285 254.184 187.31 251.31L240 198.63V352H136C121.153 351.984 106.918 346.079 96.4196 335.58C85.921 325.082 80.0159 310.847 80 296V88C80.0159 73.1528 85.921 58.9182 96.4196 48.4196C106.918 37.921 121.153 32.0159 136 32H376C390.847 32.0159 405.082 37.921 415.58 48.4196C426.079 58.9182 431.984 73.1528 432 88V296C431.984 310.847 426.079 325.082 415.58 335.58C405.082 346.079 390.847 351.984 376 352ZM272 464C272 468.243 270.314 472.313 267.314 475.314C264.313 478.314 260.243 480 256 480C251.757 480 247.687 478.314 244.686 475.314C241.686 472.313 240 468.243 240 464V352H272V464Z" fill="#0FA958"/>
</svg>
